{"title":"Webber Interview (60 Minutes) 21-03-2010 [RZ].avi","uid":5744740,"size":107637776,"categoryP":"video","categoryS":"other","magnet":"?xt=urn:btih:5482777c62b294684e75365e8d95a66a90d21659&amp;dn=Webber+Interview+%2860+Minutes%29+21-03-2010+%5BRZ%5D.avi&amp;tr=udp%3A%2F%2Ftracker.openbittorrent.com%3A80&amp;tr=udp%3A%2F%2Fopen.demonii.com%3A1337&amp;tr=udp%3A%2F%2Ftracker.coppersurfer.tk%3A6969&amp;tr=udp%3A%2F%2Fexodus.desync.com%3A6969","seeders":0,"leechers":0,"uploader":"RZVL","files":1,"time":1281169285,"description":"\nPre 2010 F1 Season Interview with Mark Webber (60 minuters, Australian TV)\n\n\nGeneral\nComplete name                    : Webber Interview (60 Minutes) 21-03-2010 [RZ].avi\nFormat                           : AVI\nFormat/Info                      : Audio Video Interleave\nFile size                        : 103 MiB\nDuration                         : 13mn 12s\nOverall bit rate                 : 1 087 Kbps\nWriting library                  : VirtualDub build 28346/release\n\nVideo\nID                               : 0\nFormat                           : MPEG-4 Visual\nFormat profile                   : Advanced Simple@L5\nFormat settings, BVOP            : Yes\nFormat settings, QPel            : No\nFormat settings, GMC             : No warppoints\nFormat settings, Matrix          : Default (H.263)\nMuxing mode                      : Packed bitstream\nCodec ID                         : XVID\nCodec ID/Hint                    : XviD\nDuration                         : 13mn 11s\nBit rate                         : 998 Kbps\nWidth                            : 720 pixels\nHeight                           : 404 pixels\nDisplay aspect ratio             : 16:9\nFrame rate                       : 25.000 fps\nResolution                       : 8 bits\nColorimetry                      : 4:2:0\nScan type                        : Progressive\nBits/(Pixel*Frame)               : 0.137\nStream size                      : 94.2 MiB (92%)\nWriting library                  : XviD 1.2.1 (UTC 2008-12-04)\n\nAudio\nID                               : 1\nFormat                           : MPEG Audio\nFormat version                   : Version 2\nFormat profile                   : Layer 3\nMode                             : Joint stereo / Intensity Stereo + MS Stereo\nCodec ID                         : 55\nCodec ID/Hint                    : MP3\nDuration                         : 13mn 12s\nBit rate mode                    : Constant\nBit rate                         : 80.0 Kbps\nChannel(s)                       : 2 channels\nSampling rate                    : 24.0 KHz\nStream size                      : 7.55 MiB (7%)\nAlignment                        : Split accross interleaves\nInterleave, duration             : 40 ms (1.00 video frame)\nInterleave, preload duration     : 500 ms\n\n\n\n","torrent":{"xt":"urn:btih:5482777c62b294684e75365e8d95a66a90d21659","amp;dn":"Webber+Interview+%2860+Minutes%29+21-03-2010+%5BRZ%5D.avi","amp;tr":["udp%3A%2F%2Ftracker.openbittorrent.com%3A80","udp%3A%2F%2Fopen.demonii.com%3A1337","udp%3A%2F%2Ftracker.coppersurfer.tk%3A6969","udp%3A%2F%2Fexodus.desync.com%3A6969"],"infoHash":"5482777c62b294684e75365e8d95a66a90d21659","infoHashBuffer":{"type":"Buffer","data":[84,130,119,124,98,178,148,104,78,117,54,94,141,149,166,106,144,210,22,89]},"announce":[],"urlList":[]}}